<?xml version="1.0" standalone="no"?>
<!DOCTYPE svg PUBLIC "-//W3C//DTD SVG 20010904//EN"
 "http://www.w3.org/TR/2001/REC-SVG-20010904/DTD/svg10.dtd">
<svg version="1.0" xmlns="http://www.w3.org/2000/svg"
 width="854.000000pt" height="552.000000pt" viewBox="0 0 854.000000 552.000000"
 preserveAspectRatio="xMidYMid meet">

<g transform="translate(0.000000,552.000000) scale(0.100000,-0.100000)"
fill="#FFFFFF" stroke="none">
<path d="M2759 5002 c-138 -89 -220 -276 -190 -438 17 -97 56 -169 126 -242
l61 -62 -75 -37 c-98 -48 -221 -168 -276 -267 -76 -138 -113 -248 -179 -547
-45 -198 -69 -264 -116 -311 -33 -33 -44 -38 -84 -38 -65 0 -123 25 -264 114
-134 84 -214 119 -316 137 l-67 11 26 34 c56 73 87 160 93 253 6 105 -8 172
-52 256 -90 172 -286 272 -480 245 -185 -26 -344 -166 -391 -345 -43 -165 5
-335 127 -457 70 -69 158 -113 262 -131 l77 -13 -21 -26 c-99 -126 -104 -321
-18 -613 70 -235 206 -526 326 -695 137 -192 353 -390 522 -475 164 -83 344
-104 483 -57 185 64 318 211 503 560 42 78 78 141 80 140 2 -2 -5 -100 -16
-218 -45 -515 -50 -872 -15 -1004 39 -146 108 -217 219 -224 83 -5 145 15 241
79 213 143 389 444 456 779 11 54 21 157 23 240 3 80 3 134 1 120 -3 -14 -10
-56 -16 -95 -60 -374 -376 -845 -567 -845 -71 0 -132 104 -132 227 0 94 31
271 85 488 76 306 298 1055 312 1055 6 0 41 -15 77 -34 40 -21 66 -30 66 -22
0 17 -57 106 -92 143 l-30 31 36 149 c50 206 66 319 66 458 0 394 -151 733
-387 872 -48 28 -53 39 -23 48 38 12 117 83 153 137 58 88 80 167 75 273 -6
137 -65 250 -171 331 l-59 44 -207 0 -207 0 -45 -28z m204 -1644 c25 -51 41
-256 31 -377 l-9 -94 -57 -13 c-117 -27 -202 -87 -272 -192 -68 -103 -102
-189 -206 -517 -104 -333 -131 -390 -200 -425 -82 -42 -157 -16 -264 93 -116
116 -212 290 -257 464 -24 95 -24 156 0 209 34 75 110 82 244 22 60 -27 84
-33 147 -33 96 0 152 26 236 109 74 75 137 170 289 436 171 299 219 362 275
357 18 -1 30 -13 43 -39z"/>
<path d="M3990 4455 l0 -45 95 0 95 0 0 -245 0 -245 55 0 55 0 0 245 0 245 95
0 95 0 0 45 0 45 -245 0 -245 0 0 -45z"/>
<path d="M4560 4210 l0 -290 55 0 55 0 0 125 0 125 150 0 150 0 0 -125 0 -125
55 0 55 0 0 290 0 290 -55 0 -55 0 0 -120 0 -120 -150 0 -150 0 0 120 0 120
-55 0 -55 0 0 -290z"/>
<path d="M5240 4210 l0 -290 220 0 220 0 0 45 0 45 -165 0 -165 0 0 80 0 80
140 0 140 0 0 45 0 45 -140 0 -140 0 0 75 0 75 155 0 155 0 0 45 0 45 -210 0
-210 0 0 -290z"/>
<path d="M4060 3460 l0 -290 55 0 55 0 0 110 0 110 140 0 140 0 0 45 0 45
-140 0 -140 0 0 90 0 90 155 0 155 0 0 45 0 45 -210 0 -210 0 0 -290z"/>
<path d="M4735 3718 c-7 -18 -64 -143 -125 -278 -61 -135 -114 -251 -117 -258
-4 -10 8 -12 52 -10 l57 3 27 65 28 65 145 3 145 3 29 -71 29 -70 57 0 57 0
-33 73 c-18 39 -77 170 -131 290 l-99 217 -53 0 c-51 0 -55 -2 -68 -32z m175
-324 c0 -2 -47 -4 -105 -4 -58 0 -105 4 -105 8 0 5 18 51 41 103 23 52 45 105
51 119 9 23 14 14 64 -99 30 -68 54 -125 54 -127z"/>
<path d="M5190 3460 l0 -290 55 0 55 0 0 290 0 290 -55 0 -55 0 0 -290z"/>
<path d="M5390 3705 l0 -45 95 0 95 0 0 -245 0 -245 55 0 55 0 0 245 0 245 95
0 95 0 0 45 0 45 -245 0 -245 0 0 -45z"/>
<path d="M5960 3460 l0 -290 55 0 55 0 0 125 0 125 150 0 150 0 0 -125 0 -125
55 0 55 0 0 290 0 290 -55 0 -55 0 0 -120 0 -120 -150 0 -150 0 0 120 0 120
-55 0 -55 0 0 -290z"/>
<path d="M4060 2710 l0 -290 55 0 55 0 0 125 0 125 150 0 150 0 0 -125 0 -125
55 0 55 0 0 290 0 290 -55 0 -55 0 0 -120 0 -120 -150 0 -150 0 0 120 0 120
-55 0 -55 0 0 -290z"/>
<path d="M4730 2710 l0 -290 220 0 220 0 0 45 0 45 -165 0 -165 0 0 80 0 80
140 0 140 0 0 45 0 45 -140 0 -140 0 0 75 0 75 155 0 155 0 0 45 0 45 -210 0
-210 0 0 -290z"/>
<path d="M5455 2968 c-7 -18 -64 -143 -125 -278 -61 -135 -114 -251 -117 -258
-4 -10 8 -12 52 -10 l57 3 27 65 28 65 145 3 145 3 29 -71 29 -70 57 0 57 0
-33 73 c-18 39 -77 170 -131 290 l-99 217 -53 0 c-51 0 -55 -2 -68 -32z m175
-324 c0 -2 -47 -4 -105 -4 -58 0 -105 4 -105 8 0 5 18 51 41 103 23 52 45 105
51 119 9 23 14 14 64 -99 30 -68 54 -125 54 -127z"/>
<path d="M5920 2710 l0 -290 205 0 205 0 0 45 0 45 -150 0 -150 0 0 245 0 245
-55 0 -55 0 0 -290z"/>
<path d="M6290 2955 l0 -45 95 0 95 0 0 -245 0 -245 55 0 55 0 0 245 0 245 95
0 95 0 0 45 0 45 -245 0 -245 0 0 -45z"/>
<path d="M6860 2710 l0 -290 55 0 55 0 0 125 0 125 150 0 150 0 0 -125 0 -125
55 0 55 0 0 290 0 290 -55 0 -55 0 0 -120 0 -120 -150 0 -150 0 0 120 0 120
-55 0 -55 0 0 -290z"/>
<path d="M5457 2250 c-85 -22 -155 -77 -195 -154 -22 -43 -26 -64 -26 -136 0
-72 4 -93 26 -136 31 -59 84 -109 147 -138 67 -30 208 -29 271 2 71 35 116 78
146 139 23 46 28 69 28 133 0 128 -57 216 -173 271 -51 24 -165 34 -224 19z
m133 -91 c212 -45 210 -354 -2 -398 -135 -28 -248 63 -248 199 0 98 50 166
143 196 53 16 47 16 107 3z"/>
<path d="M7137 2249 c-83 -20 -154 -75 -195 -153 -22 -43 -26 -64 -26 -136 0
-72 4 -93 26 -136 86 -164 314 -215 467 -103 l44 31 -36 36 -35 35 -31 -25
c-92 -78 -257 -44 -310 64 -44 91 -17 214 58 263 83 54 186 53 252 -3 l31 -25
35 35 36 36 -43 31 c-75 54 -176 73 -273 50z"/>
<path d="M4060 1960 l0 -290 55 0 55 0 0 85 0 85 91 0 c112 0 166 13 213 52
51 42 69 82 69 153 0 68 -17 110 -63 149 -51 43 -117 56 -277 56 l-143 0 0
-290z m310 184 c89 -36 95 -154 10 -196 -25 -13 -59 -18 -122 -18 l-88 0 0
115 0 115 80 0 c50 0 95 -6 120 -16z"/>
<path d="M4660 1960 l0 -290 55 0 55 0 0 85 0 85 78 0 77 0 59 -85 59 -85 53
0 c30 0 54 2 54 6 0 3 -28 46 -62 96 -42 61 -59 92 -50 95 25 9 73 56 89 87
22 41 22 141 0 182 -45 87 -123 114 -324 114 l-143 0 0 -290z m310 184 c89
-36 95 -154 10 -196 -25 -13 -59 -18 -122 -18 l-88 0 0 115 0 115 80 0 c50 0
95 -6 120 -16z"/>
<path d="M5920 2205 l0 -45 105 0 105 0 0 -176 0 -176 -30 -30 c-27 -27 -36
-30 -71 -25 -22 3 -56 17 -75 32 l-36 27 -29 -33 -29 -34 36 -32 c66 -59 193
-68 266 -20 65 44 73 75 76 330 l4 227 -161 0 -161 0 0 -45z"/>
<path d="M6390 1960 l0 -290 220 0 220 0 0 45 0 45 -165 0 -165 0 0 80 0 80
140 0 140 0 0 45 0 45 -140 0 -140 0 0 75 0 75 155 0 155 0 0 45 0 45 -210 0
-210 0 0 -290z"/>
<path d="M7480 2205 l0 -45 95 0 95 0 0 -245 0 -245 55 0 55 0 0 245 0 245 95
0 95 0 0 45 0 45 -245 0 -245 0 0 -45z"/>
</g>
</svg>
